<?xml version="1.0" encoding="UTF-8" standalone="no"?>
<svg
   xmlns:dc="http://purl.org/dc/elements/1.1/"
   xmlns:cc="http://creativecommons.org/ns#"
   xmlns:rdf="http://www.w3.org/1999/02/22-rdf-syntax-ns#"
   xmlns:svg="http://www.w3.org/2000/svg"
   xmlns="http://www.w3.org/2000/svg"
   xmlns:sodipodi="http://sodipodi.sourceforge.net/DTD/sodipodi-0.dtd"
   xmlns:inkscape="http://www.inkscape.org/namespaces/inkscape"
   width="8cm"
   height="8cm"
   viewBox="0 0 500 500"
   version="1.1"
   id="svg2"
   inkscape:version="0.48.5 r10040"
   sodipodi:docname="clarkWrightExamples.svg"
   inkscape:export-filename="E:\Users\Graham\Desktop\uni\yr 3\AnDS\cw\AnDS cw\Report files\ClarkWringOneMerge.png"
   inkscape:export-xdpi="360"
   inkscape:export-ydpi="360">
  <metadata
     id="metadata66">
    <rdf:RDF>
      <cc:Work
         rdf:about="">
        <dc:format>image/svg+xml</dc:format>
        <dc:type
           rdf:resource="http://purl.org/dc/dcmitype/StillImage" />
        <dc:title />
      </cc:Work>
    </rdf:RDF>
  </metadata>
  <defs
     id="defs64" />
  <sodipodi:namedview
     pagecolor="#ffffff"
     bordercolor="#666666"
     borderopacity="1"
     objecttolerance="10"
     gridtolerance="10"
     guidetolerance="10"
     inkscape:pageopacity="0"
     inkscape:pageshadow="2"
     inkscape:window-width="1920"
     inkscape:window-height="1018"
     id="namedview62"
     showgrid="false"
     inkscape:zoom="3.3302222"
     inkscape:cx="166.39562"
     inkscape:cy="148.27692"
     inkscape:window-x="1352"
     inkscape:window-y="-8"
     inkscape:window-maximized="1"
     inkscape:current-layer="layer2" />
  <g
     inkscape:groupmode="layer"
     id="layer5"
     inkscape:label="Line Layer"
     sodipodi:insensitive="true"
     style="display:none">
    <path
       style="fill:none;stroke:#d2691e;stroke-width:2"
       inkscape:connector-curvature="0"
       d="m 249.99999,250.00001 -50,50 50,49.99999 L 300,300.00001 z"
       id="path4" />
    <path
       style="fill:none;stroke:#6495ed;stroke-width:2"
       inkscape:connector-curvature="0"
       d="m 249.99999,250.00001 -50,-50 50,-50 50.00001,50 z"
       id="path6" />
  </g>
  <g
     inkscape:groupmode="layer"
     id="layer1"
     inkscape:label="One Route Per Cust"
     style="display:none">
    <path
       style="fill:none;stroke:#000000;stroke-width:1px;stroke-linecap:butt;stroke-linejoin:miter;stroke-opacity:1"
       d="m 141.41192,142.68964 c 0,0 21.23302,-3.60961 28.87691,-28.87691 -24.6303,1.69864 -28.87691,28.87691 -28.87691,28.87691 z"
       id="path3089"
       inkscape:connector-curvature="0"
       transform="scale(1.7638889,1.7638889)" />
    <path
       style="fill:none;stroke:#000000;stroke-width:1.76388884px;stroke-linecap:butt;stroke-linejoin:miter;stroke-opacity:1"
       d="m 251.30755,251.68867 c 0,0 -37.45269,-6.36695 -50.93566,-50.93566 43.44511,2.99621 50.93566,50.93566 50.93566,50.93566 z"
       id="path3089-0"
       inkscape:connector-curvature="0" />
    <path
       style="fill:none;stroke:#000000;stroke-width:1.76388884px;stroke-linecap:butt;stroke-linejoin:miter;stroke-opacity:1"
       d="m 249.43491,249.44151 c 0,0 37.45269,6.36695 50.93566,50.93566 -43.44511,-2.99621 -50.93566,-50.93566 -50.93566,-50.93566 z"
       id="path3089-9"
       inkscape:connector-curvature="0" />
    <path
       style="fill:none;stroke:#000000;stroke-width:1.76388884px;stroke-linecap:butt;stroke-linejoin:miter;stroke-opacity:1"
       d="m 251.30755,249.44151 c 0,0 -37.45269,6.36695 -50.93567,50.93566 43.44512,-2.99621 50.93567,-50.93566 50.93567,-50.93566 z"
       id="path3089-0-4"
       inkscape:connector-curvature="0" />
    <path
       style="fill:none;stroke:#000000;stroke-width:1px;stroke-linecap:butt;stroke-linejoin:miter;stroke-opacity:1"
       d="m 141.75401,84.935821 c -10.48675,29.938559 0,56.692169 0,56.692169 0,0 10.48675,-26.75361 0,-56.692169 z"
       id="path3137"
       inkscape:connector-curvature="0"
       transform="scale(1.7638889,1.7638889)"
       sodipodi:nodetypes="ccc" />
    <path
       style="fill:none;stroke:#000000;stroke-width:1.76388884px;stroke-linecap:butt;stroke-linejoin:miter;stroke-opacity:1"
       d="m 250.03832,350.18924 c -18.49746,-52.80829 0,-99.99868 0,-99.99868 0,0 18.49746,47.19039 0,99.99868 z"
       id="path3137-2"
       inkscape:connector-curvature="0"
       sodipodi:nodetypes="ccc" />
  </g>
  <g
     inkscape:groupmode="layer"
     id="layer2"
     inkscape:label="One Merge Layer"
     style="display:inline">
    <path
       style="fill:none;stroke:#000000;stroke-width:1.76388884px;stroke-linecap:butt;stroke-linejoin:miter;stroke-opacity:1"
       d="m 249.43492,251.68867 c 0,0 37.45268,-6.36696 50.93566,-50.93567 0,0 2.62168,-41.57248 -50.25944,-50.56113 -18.57028,52.43377 -0.0729,99.62416 -0.0729,99.62416"
       id="path3089-7"
       inkscape:connector-curvature="0"
       sodipodi:nodetypes="cccc" />
    <path
       style="fill:none;stroke:#000000;stroke-width:1.76388884px;stroke-linecap:butt;stroke-linejoin:miter;stroke-opacity:1"
       d="m 251.30756,251.68867 c 0,0 -37.4527,-6.36695 -50.93567,-50.93566 43.44512,2.99621 50.93567,50.93566 50.93567,50.93566 z"
       id="path3089-0-3"
       inkscape:connector-curvature="0" />
    <path
       style="fill:none;stroke:#000000;stroke-width:1.76388884px;stroke-linecap:butt;stroke-linejoin:miter;stroke-opacity:1"
       d="m 249.43491,249.44151 c 0,0 37.4527,6.36695 50.93566,50.93566 -43.44511,-2.99621 -50.93566,-50.93566 -50.93566,-50.93566 z"
       id="path3089-9-3"
       inkscape:connector-curvature="0" />
    <path
       style="fill:none;stroke:#000000;stroke-width:1.76388884px;stroke-linecap:butt;stroke-linejoin:miter;stroke-opacity:1"
       d="m 251.30756,249.44151 c 0,0 -37.4527,6.36695 -50.93568,50.93566 43.44513,-2.99621 50.93568,-50.93566 50.93568,-50.93566 z"
       id="path3089-0-4-5"
       inkscape:connector-curvature="0" />
    <path
       style="fill:none;stroke:#000000;stroke-width:1.76388884px;stroke-linecap:butt;stroke-linejoin:miter;stroke-opacity:1"
       d="m 250.03832,350.18923 c -18.49746,-52.80828 0,-99.99867 0,-99.99867 0,0 18.49746,47.19039 0,99.99867 z"
       id="path3137-2-9"
       inkscape:connector-curvature="0"
       sodipodi:nodetypes="ccc" />
  </g>
  <g
     inkscape:groupmode="layer"
     id="layer3"
     inkscape:label="BASE LAYER"
     style="display:inline">
    <g
       transform="translate(200,200.00001)"
       id="g8">
      <circle
         style="fill:#ffc0cb;stroke:#000000;stroke-width:1"
         sodipodi:ry="10"
         sodipodi:rx="10"
         sodipodi:cy="0"
         sodipodi:cx="0"
         cx="0"
         cy="0"
         r="10"
         id="circle10"
         d="M 10,0 C 10,5.5228475 5.5228475,10 0,10 -5.5228475,10 -10,5.5228475 -10,0 c 0,-5.5228475 4.4771525,-10 10,-10 5.5228475,0 10,4.4771525 10,10 z" />
      <text
         style="text-anchor:middle"
         y="5"
         id="text12">20</text>
    </g>
    <g
       transform="translate(249.99999,150.00001)"
       id="g14">
      <circle
         style="fill:#ffc0cb;stroke:#000000;stroke-width:1"
         sodipodi:ry="10"
         sodipodi:rx="10"
         sodipodi:cy="0"
         sodipodi:cx="0"
         cx="0"
         cy="0"
         r="10"
         id="circle16"
         d="M 10,0 C 10,5.5228475 5.5228475,10 0,10 -5.5228475,10 -10,5.5228475 -10,0 c 0,-5.5228475 4.4771525,-10 10,-10 5.5228475,0 10,4.4771525 10,10 z" />
      <text
         style="text-anchor:middle"
         y="5"
         id="text18">20</text>
    </g>
    <g
       transform="translate(299.99999,200.00001)"
       id="g20">
      <circle
         style="fill:#ffc0cb;stroke:#000000;stroke-width:1"
         sodipodi:ry="10"
         sodipodi:rx="10"
         sodipodi:cy="0"
         sodipodi:cx="0"
         cx="0"
         cy="0"
         r="10"
         id="circle22"
         d="M 10,0 C 10,5.5228475 5.5228475,10 0,10 -5.5228475,10 -10,5.5228475 -10,0 c 0,-5.5228475 4.4771525,-10 10,-10 5.5228475,0 10,4.4771525 10,10 z" />
      <text
         style="text-anchor:middle"
         y="5"
         id="text24">10</text>
    </g>
    <g
       transform="translate(200,300.00001)"
       id="g26">
      <circle
         style="fill:#ffc0cb;stroke:#000000;stroke-width:1"
         sodipodi:ry="10"
         sodipodi:rx="10"
         sodipodi:cy="0"
         sodipodi:cx="0"
         cx="0"
         cy="0"
         r="10"
         id="circle28"
         d="M 10,0 C 10,5.5228475 5.5228475,10 0,10 -5.5228475,10 -10,5.5228475 -10,0 c 0,-5.5228475 4.4771525,-10 10,-10 5.5228475,0 10,4.4771525 10,10 z" />
      <text
         style="text-anchor:middle"
         y="5"
         id="text30">20</text>
    </g>
    <g
       transform="translate(249.99999,350)"
       id="g32">
      <circle
         style="fill:#ffc0cb;stroke:#000000;stroke-width:1"
         sodipodi:ry="10"
         sodipodi:rx="10"
         sodipodi:cy="0"
         sodipodi:cx="0"
         cx="0"
         cy="0"
         r="10"
         id="circle34"
         d="M 10,0 C 10,5.5228475 5.5228475,10 0,10 -5.5228475,10 -10,5.5228475 -10,0 c 0,-5.5228475 4.4771525,-10 10,-10 5.5228475,0 10,4.4771525 10,10 z" />
      <text
         style="text-anchor:middle"
         y="5"
         id="text36">20</text>
    </g>
    <g
       transform="translate(299.99999,300.00001)"
       id="g38">
      <circle
         style="fill:#ffc0cb;stroke:#000000;stroke-width:1"
         sodipodi:ry="10"
         sodipodi:rx="10"
         sodipodi:cy="0"
         sodipodi:cx="0"
         cx="0"
         cy="0"
         r="10"
         id="circle40"
         d="M 10,0 C 10,5.5228475 5.5228475,10 0,10 -5.5228475,10 -10,5.5228475 -10,0 c 0,-5.5228475 4.4771525,-10 10,-10 5.5228475,0 10,4.4771525 10,10 z" />
      <text
         style="text-anchor:middle"
         y="5"
         id="text42">10</text>
    </g>
    <g
       transform="translate(249.99999,250)"
       id="g56">
      <circle
         style="fill:#ffc0cb;stroke:#000000;stroke-width:1"
         sodipodi:ry="20"
         sodipodi:rx="20"
         sodipodi:cy="0"
         sodipodi:cx="0"
         cx="0"
         cy="0"
         r="20"
         id="circle58"
         d="m 20,0 c 0,11.045695 -8.954305,20 -20,20 -11.045695,0 -20,-8.954305 -20,-20 0,-11.045695 8.954305,-20 20,-20 11.045695,0 20,8.954305 20,20 z" />
      <text
         style="text-anchor:middle"
         y="5"
         id="text60">D</text>
    </g>
  </g>
</svg>
